<svg width="479" height="479" viewBox="0 0 479 479" fill="none" xmlns="http://www.w3.org/2000/svg">
<circle cx="239.5" cy="239.5" r="223.5" stroke="black" stroke-width="32"/>
<path d="M369 197.946L339.135 190C332.694 207.069 326.252 218.841 319.811 225.315C313.955 231.201 305.757 234.144 295.216 234.144C287.604 234.144 279.113 232.378 269.743 228.847C260.374 224.727 250.419 220.607 239.878 216.486C229.923 211.778 219.969 207.658 210.014 204.126C200.059 200.006 190.982 197.946 182.784 197.946C165.216 197.946 150.577 203.832 138.865 215.604C127.153 226.787 117.198 248.27 109 280.054L138.865 288C145.306 270.931 151.455 259.453 157.311 253.568C163.752 247.093 172.243 243.856 182.784 243.856C190.396 243.856 198.887 245.916 208.257 250.036C217.626 253.568 227.288 257.688 237.243 262.396C247.784 266.517 258.032 270.637 267.987 274.757C277.941 278.288 287.018 280.054 295.216 280.054C312.784 280.054 327.423 274.462 339.135 263.279C350.847 251.508 360.802 229.73 369 197.946Z" fill="black"/>
</svg>
